<?xml version="1.0" standalone="no"?>
<!DOCTYPE svg PUBLIC "-//W3C//DTD SVG 20010904//EN"
 "http://www.w3.org/TR/2001/REC-SVG-20010904/DTD/svg10.dtd">
<svg version="1.0" xmlns="http://www.w3.org/2000/svg"
 width="512.000000pt" height="512.000000pt" viewBox="0 0 512.000000 512.000000"
 preserveAspectRatio="xMidYMid meet">

<g transform="translate(0.000000,512.000000) scale(0.100000,-0.100000)"
fill="#000000" stroke="none">
<path d="M4905 5104 c-16 -9 -298 -283 -625 -610 l-595 -594 -110 54 c-847
418 -1660 321 -2530 -305 -333 -239 -745 -642 -994 -972 -52 -68 -63 -124 -36
-178 24 -47 181 -240 312 -384 229 -250 528 -516 770 -682 l72 -50 -565 -564
c-311 -310 -574 -581 -585 -601 -24 -48 -24 -89 1 -138 23 -45 80 -80 130 -80
17 0 47 9 68 19 46 25 4864 4844 4886 4888 61 123 -78 260 -199 197z m-2097
-1524 c46 -12 116 -35 155 -51 73 -30 217 -115 217 -127 0 -4 -47 -54 -104
-111 l-104 -104 -53 30 c-148 84 -337 112 -507 77 -394 -81 -656 -458 -592
-852 14 -82 33 -141 76 -226 l35 -70 -103 -103 c-56 -57 -106 -103 -110 -103
-12 0 -97 144 -127 217 -60 145 -76 232 -75 408 1 129 5 175 22 235 55 203
146 366 281 500 155 156 372 266 586 300 97 15 308 4 403 -20z"/>
<path d="M3871 3236 l-323 -323 21 -66 c107 -348 0 -760 -268 -1028 -268 -268
-680 -375 -1028 -268 l-66 21 -241 -241 c-132 -132 -237 -243 -234 -246 12
-12 229 -85 326 -110 192 -48 283 -59 507 -59 172 1 232 5 330 23 357 65 706
212 1055 444 367 245 736 586 1050 972 159 195 159 215 0 410 -231 284 -582
633 -781 775 l-25 19 -323 -323z"/>
<path d="M2876 2241 c-321 -321 -414 -420 -401 -425 55 -21 254 4 359 45 211
83 391 285 451 508 19 69 31 252 19 274 -8 14 -86 -60 -428 -402z"/>
</g>
</svg>
