<svg width="14" height="14" viewBox="0 0 14 14" fill="none" xmlns="http://www.w3.org/2000/svg">
<path d="M1.64117 9.02222L0.90228 12.2111C0.87679 12.3277 0.877664 12.4485 0.904837 12.5647C0.93201 12.6809 0.984795 12.7895 1.05934 12.8827C1.13388 12.9759 1.2283 13.0512 1.33569 13.1032C1.44308 13.1552 1.56073 13.1826 1.68006 13.1833C1.73566 13.189 1.79168 13.189 1.84728 13.1833L5.05561 12.4444L11.2156 6.30778L7.77783 2.87778L1.64117 9.02222Z" fill="white"/>
<path d="M13.1518 3.23556L10.8574 0.941111C10.7066 0.791025 10.5024 0.706772 10.2896 0.706772C10.0768 0.706772 9.87269 0.791025 9.72184 0.941111L8.44629 2.21667L11.8802 5.65056L13.1557 4.375C13.2304 4.29998 13.2895 4.21097 13.3297 4.11307C13.3699 4.01517 13.3904 3.91031 13.3901 3.80447C13.3897 3.69864 13.3685 3.59391 13.3276 3.49629C13.2867 3.39867 13.227 3.31007 13.1518 3.23556Z" fill="white"/>
</svg>
