<svg width="33" height="32" viewBox="0 0 33 32" fill="none" xmlns="http://www.w3.org/2000/svg">
<path d="M16.8362 0C8.01274 0 0.858398 7.16429 0.858398 16C0.858398 24.8357 8.01274 32 16.8362 32C25.6596 32 32.814 24.8357 32.814 16C32.814 7.16429 25.6596 0 16.8362 0ZM24.5148 12.0607C24.5255 12.2286 24.5255 12.4036 24.5255 12.575C24.5255 17.8179 20.5382 23.8571 13.2519 23.8571C11.005 23.8571 8.92219 23.2036 7.16748 22.0786C7.48847 22.1143 7.79518 22.1286 8.1233 22.1286C9.97786 22.1286 11.6826 21.5 13.0415 20.4357C11.301 20.4 9.83877 19.2571 9.33946 17.6857C9.94933 17.775 10.4986 17.775 11.1263 17.6143C10.2301 17.432 9.42461 16.9446 8.84664 16.2349C8.26866 15.5253 7.95384 14.6372 7.95567 13.7214V13.6714C8.47994 13.9679 9.09694 14.15 9.74247 14.175C9.19981 13.8128 8.75477 13.3222 8.44682 12.7465C8.13886 12.1709 7.97751 11.528 7.97707 10.875C7.97707 10.1357 8.16966 9.46071 8.51561 8.875C9.51031 10.1012 10.7515 11.1041 12.1586 11.8184C13.5657 12.5328 15.1072 12.9427 16.6828 13.0214C16.1229 10.325 18.1344 8.14286 20.5524 8.14286C21.6937 8.14286 22.7209 8.62143 23.4449 9.39286C24.34 9.225 25.196 8.88929 25.9592 8.43929C25.6632 9.35714 25.0426 10.1321 24.2188 10.6214C25.0177 10.5357 25.788 10.3143 26.5013 10.0036C25.9628 10.7964 25.2887 11.5 24.5148 12.0607Z" fill="white"/>
</svg>
