<svg width="32" height="32" viewBox="0 0 32 32" fill="none" xmlns="http://www.w3.org/2000/svg">
<path d="M15.9735 10.6644C13.0396 10.6644 10.6454 13.062 10.6454 16C10.6454 18.938 13.0396 21.3356 15.9735 21.3356C18.9073 21.3356 21.3016 18.938 21.3016 16C21.3016 13.062 18.9073 10.6644 15.9735 10.6644ZM31.9538 16C31.9538 13.7905 31.9738 11.601 31.8499 9.39554C31.726 6.83381 31.1424 4.56027 29.2717 2.68701C27.3971 0.809737 25.1308 0.229345 22.5727 0.105261C20.3663 -0.018823 18.1799 0.00119058 15.9775 0.00119058C13.7711 0.00119058 11.5847 -0.018823 9.38232 0.105261C6.82419 0.229345 4.55385 0.813739 2.68322 2.68701C0.808597 4.56427 0.229022 6.83381 0.105113 9.39554C-0.0187965 11.605 0.00118891 13.7945 0.00118891 16C0.00118891 18.2055 -0.0187965 20.399 0.105113 22.6045C0.229022 25.1662 0.812595 27.4397 2.68322 29.313C4.55785 31.1903 6.82419 31.7707 9.38232 31.8947C11.5887 32.0188 13.7751 31.9988 15.9775 31.9988C18.1839 31.9988 20.3703 32.0188 22.5727 31.8947C25.1308 31.7707 27.4011 31.1863 29.2717 29.313C31.1464 27.4357 31.726 25.1662 31.8499 22.6045C31.9778 20.399 31.9538 18.2095 31.9538 16ZM15.9735 24.2095C11.4368 24.2095 7.77549 20.5431 7.77549 16C7.77549 11.4569 11.4368 7.79045 15.9735 7.79045C20.5102 7.79045 24.1715 11.4569 24.1715 16C24.1715 20.5431 20.5102 24.2095 15.9735 24.2095ZM24.5072 9.37152C23.448 9.37152 22.5926 8.51494 22.5926 7.45423C22.5926 6.39351 23.448 5.53693 24.5072 5.53693C25.5665 5.53693 26.4218 6.39351 26.4218 7.45423C26.4222 7.7061 26.3728 7.95556 26.2767 8.18832C26.1806 8.42108 26.0396 8.63256 25.8618 8.81066C25.6839 8.98876 25.4727 9.12998 25.2403 9.22622C25.0079 9.32246 24.7588 9.37184 24.5072 9.37152Z" fill="white"/>
</svg>
